<svg xmlns="http://www.w3.org/2000/svg" width="512" height="512" viewBox="0 0 512 512">
<path d="M 285 70 285 328 284 329 284 339 283 340 283 345 282 346 282 350 281 351 281 353 280 354 280 356 279 357 279 359 278 360 278 362 277 363 277 364 276 365 276 366 274 368 274 369 272 371 272 372 264 380 263 380 261 382 260 382 259 383 258 383 257 384 256 384 255 385 254 385 253 386 251 386 250 387 248 387 247 388 244 388 243 389 235 389 234 390 224 390 223 389 215 389 214 388 210 388 209 387 207 387 206 386 204 386 203 385 201 385 200 384 199 384 198 383 197 383 196 382 195 382 194 381 193 381 192 380 191 380 189 378 188 378 187 377 186 377 183 374 182 374 170 362 170 361 167 358 167 357 164 354 164 353 162 351 162 350 161 349 161 348 159 346 159 345 158 344 158 343 157 342 157 341 156 340 156 338 154 336 148 336 148 337 144 341 144 342 139 347 139 348 134 353 134 354 130 358 130 359 125 364 125 365 121 369 121 370 116 375 116 376 111 381 111 382 107 386 107 389 109 391 109 392 110 393 110 394 111 395 111 396 112 397 112 398 114 400 114 401 117 404 117 405 119 407 119 408 125 414 125 415 126 416 127 416 136 425 137 425 140 428 141 428 144 431 145 431 146 432 147 432 149 434 150 434 152 436 153 436 154 437 155 437 156 438 157 438 158 439 159 439 160 440 161 440 162 441 163 441 164 442 166 442 167 443 168 443 169 444 171 444 172 445 173 445 174 446 176 446 177 447 180 447 181 448 183 448 184 449 187 449 188 450 192 450 193 451 198 451 199 452 203 452 204 453 213 453 214 454 251 454 252 453 260 453 261 452 266 452 267 451 272 451 273 450 277 450 278 449 280 449 281 448 283 448 284 447 287 447 288 446 290 446 291 445 292 445 293 444 295 444 296 443 297 443 298 442 299 442 300 441 301 441 302 440 303 440 304 439 305 439 306 438 307 438 308 437 309 437 311 435 312 435 314 433 315 433 318 430 319 430 326 423 327 423 328 422 328 421 334 415 334 414 336 412 336 411 338 409 338 408 340 406 340 405 341 404 341 403 342 402 342 401 343 400 343 399 344 398 344 397 345 396 345 395 346 394 346 393 347 392 347 390 348 389 348 387 349 386 349 385 350 384 350 382 351 381 351 378 352 377 352 375 353 374 353 370 354 369 354 366 355 365 355 361 356 360 356 355 357 354 357 344 358 343 358 326 359 325 359 70 Z" fill="#FFDE59"/>
</svg>